<svg width="93" height="43" viewBox="0 0 93 43" fill="none" xmlns="http://www.w3.org/2000/svg">
<path d="M24.4395 26H6.89648V22.5195L15.1758 13.6953C16.3125 12.4531 17.1504 11.3691 17.6895 10.4434C18.2402 9.51758 18.5156 8.63867 18.5156 7.80664C18.5156 6.66992 18.2285 5.7793 17.6543 5.13477C17.0801 4.47852 16.2598 4.15039 15.1934 4.15039C14.0449 4.15039 13.1367 4.54883 12.4688 5.3457C11.8125 6.13086 11.4844 7.16797 11.4844 8.45703H6.38672C6.38672 6.89844 6.75586 5.47461 7.49414 4.18555C8.24414 2.89648 9.29883 1.88867 10.6582 1.16211C12.0176 0.423828 13.5586 0.0546875 15.2812 0.0546875C17.918 0.0546875 19.9629 0.6875 21.416 1.95312C22.8809 3.21875 23.6133 5.00586 23.6133 7.31445C23.6133 8.58008 23.2852 9.86914 22.6289 11.1816C21.9727 12.4941 20.8477 14.0234 19.2539 15.7695L13.4355 21.9043H24.4395V26ZM44.7949 15.418C44.7949 18.957 44.0625 21.6641 42.5977 23.5391C41.1328 25.4141 38.9883 26.3516 36.1641 26.3516C33.375 26.3516 31.2422 25.4316 29.7656 23.5918C28.2891 21.752 27.5332 19.1152 27.498 15.6816V10.9707C27.498 7.39648 28.2363 4.68359 29.7129 2.83203C31.2012 0.980469 33.3398 0.0546875 36.1289 0.0546875C38.918 0.0546875 41.0508 0.974609 42.5273 2.81445C44.0039 4.64258 44.7598 7.27344 44.7949 10.707V15.418ZM39.7148 10.25C39.7148 8.12891 39.4219 6.58789 38.8359 5.62695C38.2617 4.6543 37.3594 4.16797 36.1289 4.16797C34.9336 4.16797 34.0488 4.63086 33.4746 5.55664C32.9121 6.4707 32.6133 7.90625 32.5781 9.86328V16.0859C32.5781 18.1719 32.8594 19.7246 33.4219 20.7441C33.9961 21.752 34.9102 22.2559 36.1641 22.2559C37.4062 22.2559 38.3027 21.7695 38.8535 20.7969C39.4043 19.8242 39.6914 18.3359 39.7148 16.332V10.25ZM65.7832 26H48.2402V22.5195L56.5195 13.6953C57.6562 12.4531 58.4941 11.3691 59.0332 10.4434C59.584 9.51758 59.8594 8.63867 59.8594 7.80664C59.8594 6.66992 59.5723 5.7793 58.998 5.13477C58.4238 4.47852 57.6035 4.15039 56.5371 4.15039C55.3887 4.15039 54.4805 4.54883 53.8125 5.3457C53.1562 6.13086 52.8281 7.16797 52.8281 8.45703H47.7305C47.7305 6.89844 48.0996 5.47461 48.8379 4.18555C49.5879 2.89648 50.6426 1.88867 52.002 1.16211C53.3613 0.423828 54.9023 0.0546875 56.625 0.0546875C59.2617 0.0546875 61.3066 0.6875 62.7598 1.95312C64.2246 3.21875 64.957 5.00586 64.957 7.31445C64.957 8.58008 64.6289 9.86914 63.9727 11.1816C63.3164 12.4941 62.1914 14.0234 60.5977 15.7695L54.7793 21.9043H65.7832V26ZM86.1387 15.418C86.1387 18.957 85.4062 21.6641 83.9414 23.5391C82.4766 25.4141 80.332 26.3516 77.5078 26.3516C74.7188 26.3516 72.5859 25.4316 71.1094 23.5918C69.6328 21.752 68.877 19.1152 68.8418 15.6816V10.9707C68.8418 7.39648 69.5801 4.68359 71.0566 2.83203C72.5449 0.980469 74.6836 0.0546875 77.4727 0.0546875C80.2617 0.0546875 82.3945 0.974609 83.8711 2.81445C85.3477 4.64258 86.1035 7.27344 86.1387 10.707V15.418ZM81.0586 10.25C81.0586 8.12891 80.7656 6.58789 80.1797 5.62695C79.6055 4.6543 78.7031 4.16797 77.4727 4.16797C76.2773 4.16797 75.3926 4.63086 74.8184 5.55664C74.2559 6.4707 73.957 7.90625 73.9219 9.86328V16.0859C73.9219 18.1719 74.2031 19.7246 74.7656 20.7441C75.3398 21.752 76.2539 22.2559 77.5078 22.2559C78.75 22.2559 79.6465 21.7695 80.1973 20.7969C80.748 19.8242 81.0352 18.3359 81.0586 16.332V10.25Z" fill="#EB5757"/>
<path d="M7.93945 39.1582C7.87305 40.0762 7.5332 40.7988 6.91992 41.3262C6.31055 41.8535 5.50586 42.1172 4.50586 42.1172C3.41211 42.1172 2.55078 41.75 1.92188 41.0156C1.29688 40.2773 0.984375 39.2656 0.984375 37.9805V37.459C0.984375 36.6387 1.12891 35.916 1.41797 35.291C1.70703 34.666 2.11914 34.1875 2.6543 33.8555C3.19336 33.5195 3.81836 33.3516 4.5293 33.3516C5.51367 33.3516 6.30664 33.6152 6.9082 34.1426C7.50977 34.6699 7.85742 35.4102 7.95117 36.3633H6.19336C6.15039 35.8125 5.99609 35.4141 5.73047 35.168C5.46875 34.918 5.06836 34.793 4.5293 34.793C3.94336 34.793 3.50391 35.0039 3.21094 35.4258C2.92188 35.8438 2.77344 36.4941 2.76562 37.377V38.0215C2.76562 38.9434 2.9043 39.6172 3.18164 40.043C3.46289 40.4688 3.9043 40.6816 4.50586 40.6816C5.04883 40.6816 5.45312 40.5586 5.71875 40.3125C5.98828 40.0625 6.14258 39.6777 6.18164 39.1582H7.93945Z" fill="#2F80ED"/>
<path d="M13.5176 39.7617C13.5176 39.4297 13.4004 39.1758 13.166 39C12.9316 38.8203 12.5098 38.6328 11.9004 38.4375C11.291 38.2383 10.8086 38.043 10.4531 37.8516C9.48438 37.3281 9 36.623 9 35.7363C9 35.2754 9.12891 34.8652 9.38672 34.5059C9.64844 34.1426 10.0215 33.8594 10.5059 33.6562C10.9941 33.4531 11.541 33.3516 12.1465 33.3516C12.7559 33.3516 13.2988 33.4629 13.7754 33.6855C14.252 33.9043 14.6211 34.2148 14.8828 34.6172C15.1484 35.0195 15.2812 35.4766 15.2812 35.9883H13.5234C13.5234 35.5977 13.4004 35.2949 13.1543 35.0801C12.9082 34.8613 12.5625 34.752 12.1172 34.752C11.6875 34.752 11.3535 34.8438 11.1152 35.0273C10.877 35.207 10.7578 35.4453 10.7578 35.7422C10.7578 36.0195 10.8965 36.252 11.1738 36.4395C11.4551 36.627 11.8672 36.8027 12.4102 36.9668C13.4102 37.2676 14.1387 37.6406 14.5957 38.0859C15.0527 38.5312 15.2812 39.0859 15.2812 39.75C15.2812 40.4883 15.002 41.0684 14.4434 41.4902C13.8848 41.9082 13.1328 42.1172 12.1875 42.1172C11.5312 42.1172 10.9336 41.998 10.3945 41.7598C9.85547 41.5176 9.44336 41.1875 9.1582 40.7695C8.87695 40.3516 8.73633 39.8672 8.73633 39.3164H10.5C10.5 40.2578 11.0625 40.7285 12.1875 40.7285C12.6055 40.7285 12.9316 40.6445 13.166 40.4766C13.4004 40.3047 13.5176 40.0664 13.5176 39.7617Z" fill="#9B51E0"/>
<path d="M20.9004 39.7617C20.9004 39.4297 20.7832 39.1758 20.5488 39C20.3145 38.8203 19.8926 38.6328 19.2832 38.4375C18.6738 38.2383 18.1914 38.043 17.8359 37.8516C16.8672 37.3281 16.3828 36.623 16.3828 35.7363C16.3828 35.2754 16.5117 34.8652 16.7695 34.5059C17.0312 34.1426 17.4043 33.8594 17.8887 33.6562C18.377 33.4531 18.9238 33.3516 19.5293 33.3516C20.1387 33.3516 20.6816 33.4629 21.1582 33.6855C21.6348 33.9043 22.0039 34.2148 22.2656 34.6172C22.5312 35.0195 22.6641 35.4766 22.6641 35.9883H20.9062C20.9062 35.5977 20.7832 35.2949 20.5371 35.0801C20.291 34.8613 19.9453 34.752 19.5 34.752C19.0703 34.752 18.7363 34.8438 18.498 35.0273C18.2598 35.207 18.1406 35.4453 18.1406 35.7422C18.1406 36.0195 18.2793 36.252 18.5566 36.4395C18.8379 36.627 19.25 36.8027 19.793 36.9668C20.793 37.2676 21.5215 37.6406 21.9785 38.0859C22.4355 38.5312 22.6641 39.0859 22.6641 39.75C22.6641 40.4883 22.3848 41.0684 21.8262 41.4902C21.2676 41.9082 20.5156 42.1172 19.5703 42.1172C18.9141 42.1172 18.3164 41.998 17.7773 41.7598C17.2383 41.5176 16.8262 41.1875 16.541 40.7695C16.2598 40.3516 16.1191 39.8672 16.1191 39.3164H17.8828C17.8828 40.2578 18.4453 40.7285 19.5703 40.7285C19.9883 40.7285 20.3145 40.6445 20.5488 40.4766C20.7832 40.3047 20.9004 40.0664 20.9004 39.7617Z" fill="#219653"/>
<path d="M31.9941 32.3271L34.0518 40.585L35.6787 40.8242L31.8301 42.4648L33.1426 40.7969L32.377 38.8896L28.8496 39.0059L28.1318 41.0361L29.4512 42.7725L25.3633 41.1592L27.373 40.9609L27.9473 39.0332H27.6123L27.0381 38.3018L28.2002 38.1787L29.4375 34.0498L28.0361 33.3184L31.9941 32.3271ZM29.1709 38.0693L31.8984 37.7549L30.4971 34.2891L29.1709 38.0693ZM41.6943 37.7549C41.6943 38.0101 41.6829 38.279 41.6602 38.5615C41.6374 38.8441 41.6032 39.1266 41.5576 39.4092C41.512 39.6917 41.4551 39.9674 41.3867 40.2363C41.3229 40.5052 41.2477 40.7513 41.1611 40.9746L42.5078 41.4121L38.9463 42.1094L40.1562 41.2002C40.252 40.8493 40.3158 40.512 40.3477 40.1885C40.3841 39.8649 40.4023 39.5596 40.4023 39.2725C40.4023 39.0993 40.3955 38.9033 40.3818 38.6846C40.3727 38.4613 40.3477 38.2357 40.3066 38.0078C40.2702 37.7799 40.2155 37.5566 40.1426 37.3379C40.0742 37.1191 39.9831 36.9255 39.8691 36.7568C39.7552 36.5837 39.6139 36.4469 39.4453 36.3467C39.2812 36.2419 39.083 36.1895 38.8506 36.1895C38.5817 36.1895 38.3083 36.2783 38.0303 36.4561C37.7523 36.6338 37.4948 36.8958 37.2578 37.2422V41.0225L38.3857 41.8291L35.002 42.0684L35.8975 41.0771L36.376 36.1074L34.9199 35.3896L37.2578 35.1572V36.1895C37.39 36.0072 37.5358 35.8363 37.6953 35.6768C37.8548 35.5173 38.0234 35.3805 38.2012 35.2666C38.3789 35.1481 38.5635 35.057 38.7549 34.9932C38.9508 34.9248 39.1514 34.8906 39.3564 34.8906C39.7529 34.8906 40.097 34.9635 40.3887 35.1094C40.6803 35.2552 40.9219 35.458 41.1133 35.7178C41.3092 35.973 41.4551 36.276 41.5508 36.627C41.6465 36.9733 41.6943 37.3493 41.6943 37.7549ZM42.6787 42.0684L43.752 41.2275L43.5195 36.5107L42.2549 35.6836L45.1943 35.1846L44.668 40.667L46.1377 41.583L42.6787 42.0684ZM45.2695 33.5303C45.2695 33.667 45.2422 33.7969 45.1875 33.9199C45.1328 34.0384 45.0576 34.1455 44.9619 34.2412C44.8662 34.3324 44.7568 34.4053 44.6338 34.46C44.5107 34.5101 44.3809 34.5352 44.2441 34.5352C44.0983 34.5352 43.9616 34.5101 43.834 34.46C43.7109 34.4053 43.6038 34.3324 43.5127 34.2412C43.4215 34.1455 43.3486 34.0384 43.2939 33.9199C43.2393 33.7969 43.2119 33.667 43.2119 33.5303C43.2119 33.389 43.2393 33.2591 43.2939 33.1406C43.3486 33.0176 43.4215 32.9105 43.5127 32.8193C43.6038 32.7282 43.7109 32.6576 43.834 32.6074C43.9616 32.5527 44.0983 32.5254 44.2441 32.5254C44.3809 32.5254 44.5107 32.5527 44.6338 32.6074C44.7568 32.6576 44.8662 32.7282 44.9619 32.8193C45.0576 32.9105 45.1328 33.0176 45.1875 33.1406C45.2422 33.2591 45.2695 33.389 45.2695 33.5303ZM45.9395 42.0684L46.835 41.0635L47.2998 36.4287L45.8574 35.3896L48.1816 35.5469V36.2441C48.3548 36.0117 48.5348 35.8317 48.7217 35.7041C48.9131 35.5765 49.0885 35.4831 49.248 35.4238C49.4349 35.3555 49.6195 35.3167 49.8018 35.3076C50.1253 35.3076 50.4193 35.3737 50.6836 35.5059C50.9479 35.638 51.1576 35.8203 51.3125 36.0527C51.5039 35.8249 51.7227 35.6449 51.9688 35.5127C52.2148 35.376 52.4814 35.3076 52.7686 35.3076C53.0283 35.3076 53.2699 35.3669 53.4932 35.4854C53.7165 35.6038 53.9079 35.7702 54.0674 35.9844C54.2314 36.1986 54.359 36.4606 54.4502 36.7705C54.5459 37.0758 54.5938 37.4154 54.5938 37.7891C54.5938 38.0579 54.5755 38.3382 54.5391 38.6299C54.5072 38.9215 54.4616 39.2109 54.4023 39.498C54.3477 39.7852 54.2793 40.0654 54.1973 40.3389C54.1152 40.6077 54.0264 40.8584 53.9307 41.0908L54.9014 41.5215L51.5107 42.1572L53.0078 40.9609C53.0807 40.4688 53.1263 40.0199 53.1445 39.6143C53.1673 39.2041 53.1787 38.8555 53.1787 38.5684C53.1787 37.8346 53.0898 37.3014 52.9121 36.9688C52.7389 36.6361 52.4906 36.4697 52.167 36.4697C51.971 36.4697 51.7751 36.5404 51.5791 36.6816C51.6064 36.791 51.6201 36.9072 51.6201 37.0303C51.6201 37.3083 51.5973 37.5954 51.5518 37.8916C51.5107 38.1878 51.4561 38.4795 51.3877 38.7666C51.3193 39.0537 51.2419 39.3317 51.1553 39.6006C51.0687 39.8695 50.9821 40.1133 50.8955 40.332L51.8594 41.0908H49.1045L50.0273 40.3457C50.082 39.9219 50.1208 39.4889 50.1436 39.0469C50.1663 38.6003 50.1777 38.181 50.1777 37.7891C50.1777 37.3242 50.123 36.9596 50.0137 36.6953C49.9089 36.431 49.7174 36.2988 49.4395 36.2988C49.2982 36.2988 49.166 36.3262 49.043 36.3809C48.9245 36.4355 48.8128 36.5085 48.708 36.5996C48.6077 36.6908 48.512 36.7956 48.4209 36.9141C48.3343 37.0326 48.2546 37.1556 48.1816 37.2832V41.0088L49.3301 41.8291L45.9395 42.0684ZM61.5801 37.7412C61.5801 37.9827 61.5664 38.2425 61.5391 38.5205C61.5117 38.7985 61.4707 39.0811 61.416 39.3682C61.3659 39.6553 61.3044 39.9378 61.2314 40.2158C61.1631 40.4893 61.0879 40.7422 61.0059 40.9746L62.4619 42L59.8848 41.8906L60.042 41.0498C59.7686 41.3916 59.4518 41.6536 59.0918 41.8359C58.7363 42.0137 58.3239 42.1208 57.8545 42.1572C57.4717 42.1846 57.1367 42.1572 56.8496 42.0752C56.5671 41.9977 56.3301 41.877 56.1387 41.7129C55.9518 41.5443 55.8128 41.3392 55.7217 41.0977C55.6305 40.8516 55.585 40.5781 55.585 40.2773C55.585 39.9993 55.6533 39.7305 55.79 39.4707C55.9268 39.2064 56.1227 38.974 56.3779 38.7734C56.6377 38.5729 56.9544 38.4134 57.3281 38.2949C57.7018 38.1719 58.1257 38.1104 58.5996 38.1104C58.8184 38.1104 59.069 38.1309 59.3516 38.1719C59.6387 38.2129 59.9098 38.2995 60.165 38.4316C60.1423 38.1536 60.099 37.8711 60.0352 37.584C59.9759 37.2923 59.887 37.028 59.7686 36.791C59.6501 36.554 59.4951 36.3626 59.3037 36.2168C59.1169 36.0664 58.8822 35.9912 58.5996 35.9912C58.3581 35.9912 58.1234 36.0413 57.8955 36.1416C57.6676 36.2419 57.4535 36.3854 57.2529 36.5723C57.057 36.7591 56.8792 36.987 56.7197 37.2559C56.5602 37.5247 56.4258 37.8278 56.3164 38.165L55.7422 34.8154L56.6104 36.1484C56.8245 35.8841 57.041 35.6745 57.2598 35.5195C57.4785 35.36 57.695 35.2393 57.9092 35.1572C58.1279 35.0706 58.3376 35.0137 58.5381 34.9863C58.7432 34.959 58.9391 34.9453 59.126 34.9453C59.4769 34.9635 59.8005 35.0365 60.0967 35.1641C60.3975 35.2871 60.6572 35.4671 60.876 35.7041C61.0947 35.9365 61.2656 36.2236 61.3887 36.5654C61.5163 36.9072 61.5801 37.2992 61.5801 37.7412ZM60.165 39.9287C60.1742 39.8011 60.181 39.6781 60.1855 39.5596C60.1901 39.4411 60.1924 39.3249 60.1924 39.2109V39.1289C60.0283 39.0651 59.862 39.0173 59.6934 38.9854C59.5293 38.9489 59.3766 38.9238 59.2354 38.9102C59.0941 38.8919 58.9733 38.8828 58.873 38.8828C58.7773 38.8783 58.7135 38.876 58.6816 38.876C58.4219 38.8851 58.1963 38.9329 58.0049 39.0195C57.8135 39.1061 57.654 39.2155 57.5264 39.3477C57.4033 39.4753 57.3099 39.6188 57.2461 39.7783C57.1868 39.9378 57.1572 40.0951 57.1572 40.25C57.1572 40.6009 57.2415 40.8675 57.4102 41.0498C57.5833 41.2275 57.834 41.3164 58.1621 41.3164C58.3809 41.3164 58.5882 41.2777 58.7842 41.2002C58.9801 41.1227 59.1624 41.0202 59.3311 40.8926C59.5042 40.7604 59.6592 40.6123 59.7959 40.4482C59.9372 40.2796 60.0602 40.1064 60.165 39.9287ZM63.2275 39.0059C63.2275 38.5775 63.2708 38.1514 63.3574 37.7275C63.4486 37.2992 63.5465 36.9072 63.6514 36.5518L62.4688 36.627L65.8047 32.9834C65.5404 33.8174 65.3262 34.5693 65.1621 35.2393L67.8213 35.4648L67.4727 36.2852L64.8955 36.4697C64.8317 36.8024 64.7816 37.0986 64.7451 37.3584C64.7132 37.6136 64.6859 37.8301 64.6631 38.0078C64.6403 38.2174 64.6243 38.3997 64.6152 38.5547C64.6152 39.0104 64.6426 39.4206 64.6973 39.7852C64.752 40.1497 64.8363 40.4619 64.9502 40.7217C65.0687 40.9769 65.2168 41.1751 65.3945 41.3164C65.5768 41.4531 65.7933 41.5215 66.0439 41.5215C66.2764 41.5215 66.4701 41.4759 66.625 41.3848C66.7845 41.2891 66.9121 41.1683 67.0078 41.0225C67.1035 40.8721 67.1719 40.7057 67.2129 40.5234C67.2539 40.3366 67.2744 40.152 67.2744 39.9697C67.2744 39.8011 67.2607 39.637 67.2334 39.4775C67.4294 39.5778 67.5775 39.7396 67.6777 39.9629C67.7826 40.1816 67.835 40.4209 67.835 40.6807C67.835 40.9495 67.7894 41.1865 67.6982 41.3916C67.6117 41.5967 67.4909 41.7699 67.3359 41.9111C67.181 42.0479 66.9987 42.1527 66.7891 42.2256C66.5794 42.2985 66.3538 42.335 66.1123 42.335C65.9665 42.335 65.7933 42.319 65.5928 42.2871C65.3968 42.2552 65.1917 42.196 64.9775 42.1094C64.7633 42.0273 64.5514 41.9089 64.3418 41.7539C64.1322 41.599 63.9453 41.3984 63.7812 41.1523C63.6172 40.9062 63.4827 40.6077 63.3779 40.2568C63.2777 39.9014 63.2275 39.4844 63.2275 39.0059ZM68.1221 42.0684L69.1953 41.2275L68.9629 36.5107L67.6982 35.6836L70.6377 35.1846L70.1113 40.667L71.5811 41.583L68.1221 42.0684ZM70.7129 33.5303C70.7129 33.667 70.6855 33.7969 70.6309 33.9199C70.5762 34.0384 70.501 34.1455 70.4053 34.2412C70.3096 34.3324 70.2002 34.4053 70.0771 34.46C69.9541 34.5101 69.8242 34.5352 69.6875 34.5352C69.5417 34.5352 69.4049 34.5101 69.2773 34.46C69.1543 34.4053 69.0472 34.3324 68.9561 34.2412C68.8649 34.1455 68.792 34.0384 68.7373 33.9199C68.6826 33.7969 68.6553 33.667 68.6553 33.5303C68.6553 33.389 68.6826 33.2591 68.7373 33.1406C68.792 33.0176 68.8649 32.9105 68.9561 32.8193C69.0472 32.7282 69.1543 32.6576 69.2773 32.6074C69.4049 32.5527 69.5417 32.5254 69.6875 32.5254C69.8242 32.5254 69.9541 32.5527 70.0771 32.6074C70.2002 32.6576 70.3096 32.7282 70.4053 32.8193C70.501 32.9105 70.5762 33.0176 70.6309 33.1406C70.6855 33.2591 70.7129 33.389 70.7129 33.5303ZM71.7314 38.5684C71.7314 38.0579 71.8112 37.5863 71.9707 37.1533C72.1348 36.7158 72.3604 36.3376 72.6475 36.0186C72.9391 35.6995 73.2832 35.4512 73.6797 35.2734C74.0807 35.0911 74.5182 35 74.9922 35C75.4525 35 75.874 35.0866 76.2568 35.2598C76.6396 35.4284 76.9723 35.6676 77.2549 35.9775C77.5374 36.2874 77.763 36.6589 77.9316 37.0918C78.1003 37.5247 78.2005 38.0033 78.2324 38.5273C78.2643 39.0879 78.2051 39.596 78.0547 40.0518C77.9089 40.5029 77.6924 40.888 77.4053 41.207C77.1182 41.5215 76.7741 41.7653 76.373 41.9385C75.9766 42.1117 75.5459 42.1982 75.0811 42.1982C74.6344 42.1982 74.2083 42.1185 73.8027 41.959C73.4017 41.7949 73.0462 41.5579 72.7363 41.248C72.431 40.9382 72.1872 40.5599 72.0049 40.1133C71.8226 39.6621 71.7314 39.1471 71.7314 38.5684ZM73.4131 38.6846C73.4131 39.0856 73.4701 39.4479 73.584 39.7715C73.6979 40.0951 73.8506 40.3708 74.042 40.5986C74.2334 40.8219 74.4544 40.9951 74.7051 41.1182C74.9557 41.2412 75.2201 41.3027 75.498 41.3027C75.776 41.3027 76.0358 41.2435 76.2773 41.125C76.5189 41.002 76.7285 40.8311 76.9062 40.6123C77.084 40.389 77.223 40.1224 77.3232 39.8125C77.4235 39.5026 77.4736 39.1585 77.4736 38.7803C77.4736 38.4066 77.4235 38.0557 77.3232 37.7275C77.223 37.3949 77.0817 37.1055 76.8994 36.8594C76.7217 36.6133 76.5098 36.4196 76.2637 36.2783C76.0176 36.137 75.7487 36.0664 75.457 36.0664C75.1973 36.0664 74.9443 36.1257 74.6982 36.2441C74.4567 36.3626 74.2402 36.5358 74.0488 36.7637C73.8574 36.987 73.7025 37.2604 73.584 37.584C73.4701 37.9076 73.4131 38.2744 73.4131 38.6846ZM85.2529 37.7549C85.2529 38.0101 85.2415 38.279 85.2188 38.5615C85.196 38.8441 85.1618 39.1266 85.1162 39.4092C85.0706 39.6917 85.0137 39.9674 84.9453 40.2363C84.8815 40.5052 84.8063 40.7513 84.7197 40.9746L86.0664 41.4121L82.5049 42.1094L83.7148 41.2002C83.8105 40.8493 83.8743 40.512 83.9062 40.1885C83.9427 39.8649 83.9609 39.5596 83.9609 39.2725C83.9609 39.0993 83.9541 38.9033 83.9404 38.6846C83.9313 38.4613 83.9062 38.2357 83.8652 38.0078C83.8288 37.7799 83.7741 37.5566 83.7012 37.3379C83.6328 37.1191 83.5417 36.9255 83.4277 36.7568C83.3138 36.5837 83.1725 36.4469 83.0039 36.3467C82.8398 36.2419 82.6416 36.1895 82.4092 36.1895C82.1403 36.1895 81.8669 36.2783 81.5889 36.4561C81.3109 36.6338 81.0534 36.8958 80.8164 37.2422V41.0225L81.9443 41.8291L78.5605 42.0684L79.4561 41.0771L79.9346 36.1074L78.4785 35.3896L80.8164 35.1572V36.1895C80.9486 36.0072 81.0944 35.8363 81.2539 35.6768C81.4134 35.5173 81.582 35.3805 81.7598 35.2666C81.9375 35.1481 82.1221 35.057 82.3135 34.9932C82.5094 34.9248 82.71 34.8906 82.915 34.8906C83.3115 34.8906 83.6556 34.9635 83.9473 35.1094C84.2389 35.2552 84.4805 35.458 84.6719 35.7178C84.8678 35.973 85.0137 36.276 85.1094 36.627C85.2051 36.9733 85.2529 37.3493 85.2529 37.7549ZM89.0605 35.041C89.2337 35.041 89.4092 35.057 89.5869 35.0889C89.7646 35.1162 89.9378 35.1595 90.1064 35.2188C90.2796 35.2734 90.4414 35.3418 90.5918 35.4238C90.7467 35.5013 90.8857 35.5879 91.0088 35.6836L92.1299 34.3027L91.624 37.7139C91.5693 37.4769 91.4736 37.2445 91.3369 37.0166C91.2002 36.7842 91.0293 36.5768 90.8242 36.3945C90.6237 36.2122 90.3913 36.0664 90.127 35.957C89.8626 35.8431 89.5732 35.7861 89.2588 35.7861C89.0856 35.7861 88.9193 35.8066 88.7598 35.8477C88.6003 35.8841 88.459 35.9456 88.3359 36.0322C88.2174 36.1188 88.1217 36.2282 88.0488 36.3604C87.9805 36.4925 87.9463 36.6497 87.9463 36.832C87.9463 37.0508 88.0055 37.2285 88.124 37.3652C88.2471 37.502 88.4066 37.6182 88.6025 37.7139C88.7985 37.805 89.0218 37.8848 89.2725 37.9531C89.5231 38.0169 89.7806 38.0853 90.0449 38.1582C90.3092 38.2311 90.5667 38.3177 90.8174 38.418C91.068 38.5137 91.2913 38.639 91.4873 38.7939C91.6833 38.9489 91.8405 39.1426 91.959 39.375C92.082 39.6029 92.1436 39.8854 92.1436 40.2227C92.1436 40.6009 92.0684 40.9245 91.918 41.1934C91.7721 41.4577 91.583 41.6764 91.3506 41.8496C91.1182 42.0182 90.8607 42.1413 90.5781 42.2188C90.2956 42.2962 90.0199 42.335 89.751 42.335C89.5322 42.335 89.3135 42.3122 89.0947 42.2666C88.876 42.221 88.6641 42.1572 88.459 42.0752C88.2539 41.9932 88.0579 41.8952 87.8711 41.7812C87.6888 41.6673 87.5225 41.5443 87.3721 41.4121L86.333 42.7998L86.6543 39.4092C86.8001 39.7191 86.9756 40.0085 87.1807 40.2773C87.3857 40.5462 87.6136 40.7809 87.8643 40.9814C88.1149 41.1774 88.3838 41.3324 88.6709 41.4463C88.958 41.5557 89.2565 41.6104 89.5664 41.6104C89.9264 41.6104 90.2135 41.5352 90.4277 41.3848C90.6465 41.2298 90.7559 41.0111 90.7559 40.7285C90.7559 40.5462 90.6943 40.3958 90.5713 40.2773C90.4528 40.1543 90.2933 40.0472 90.0928 39.9561C89.8968 39.8649 89.6735 39.7829 89.4229 39.71C89.1722 39.637 88.9147 39.5573 88.6504 39.4707C88.3861 39.3841 88.1286 39.2839 87.8779 39.1699C87.6273 39.0514 87.4017 38.9056 87.2012 38.7324C87.0052 38.5547 86.8457 38.3405 86.7227 38.0898C86.6042 37.8346 86.5449 37.527 86.5449 37.167C86.5449 36.8571 86.5905 36.5882 86.6816 36.3604C86.7728 36.1325 86.8913 35.9411 87.0371 35.7861C87.1875 35.6266 87.3538 35.499 87.5361 35.4033C87.723 35.3031 87.9098 35.2279 88.0967 35.1777C88.2835 35.123 88.4613 35.0866 88.6299 35.0684C88.7985 35.0501 88.9421 35.041 89.0605 35.041Z" fill="#4F4F4F"/>
</svg>
