<svg width="86" height="41" viewBox="0 0 86 41" fill="none" xmlns="http://www.w3.org/2000/svg">
<path d="M20.9395 26H3.39648V22.5195L11.6758 13.6953C12.8125 12.4531 13.6504 11.3691 14.1895 10.4434C14.7402 9.51758 15.0156 8.63867 15.0156 7.80664C15.0156 6.66992 14.7285 5.7793 14.1543 5.13477C13.5801 4.47852 12.7598 4.15039 11.6934 4.15039C10.5449 4.15039 9.63672 4.54883 8.96875 5.3457C8.3125 6.13086 7.98438 7.16797 7.98438 8.45703H2.88672C2.88672 6.89844 3.25586 5.47461 3.99414 4.18555C4.74414 2.89648 5.79883 1.88867 7.1582 1.16211C8.51758 0.423828 10.0586 0.0546875 11.7812 0.0546875C14.418 0.0546875 16.4629 0.6875 17.916 1.95312C19.3809 3.21875 20.1133 5.00586 20.1133 7.31445C20.1133 8.58008 19.7852 9.86914 19.1289 11.1816C18.4727 12.4941 17.3477 14.0234 15.7539 15.7695L9.93555 21.9043H20.9395V26ZM41.2949 15.418C41.2949 18.957 40.5625 21.6641 39.0977 23.5391C37.6328 25.4141 35.4883 26.3516 32.6641 26.3516C29.875 26.3516 27.7422 25.4316 26.2656 23.5918C24.7891 21.752 24.0332 19.1152 23.998 15.6816V10.9707C23.998 7.39648 24.7363 4.68359 26.2129 2.83203C27.7012 0.980469 29.8398 0.0546875 32.6289 0.0546875C35.418 0.0546875 37.5508 0.974609 39.0273 2.81445C40.5039 4.64258 41.2598 7.27344 41.2949 10.707V15.418ZM36.2148 10.25C36.2148 8.12891 35.9219 6.58789 35.3359 5.62695C34.7617 4.6543 33.8594 4.16797 32.6289 4.16797C31.4336 4.16797 30.5488 4.63086 29.9746 5.55664C29.4121 6.4707 29.1133 7.90625 29.0781 9.86328V16.0859C29.0781 18.1719 29.3594 19.7246 29.9219 20.7441C30.4961 21.752 31.4102 22.2559 32.6641 22.2559C33.9062 22.2559 34.8027 21.7695 35.3535 20.7969C35.9043 19.8242 36.1914 18.3359 36.2148 16.332V10.25ZM62.2832 26H44.7402V22.5195L53.0195 13.6953C54.1562 12.4531 54.9941 11.3691 55.5332 10.4434C56.084 9.51758 56.3594 8.63867 56.3594 7.80664C56.3594 6.66992 56.0723 5.7793 55.498 5.13477C54.9238 4.47852 54.1035 4.15039 53.0371 4.15039C51.8887 4.15039 50.9805 4.54883 50.3125 5.3457C49.6562 6.13086 49.3281 7.16797 49.3281 8.45703H44.2305C44.2305 6.89844 44.5996 5.47461 45.3379 4.18555C46.0879 2.89648 47.1426 1.88867 48.502 1.16211C49.8613 0.423828 51.4023 0.0546875 53.125 0.0546875C55.7617 0.0546875 57.8066 0.6875 59.2598 1.95312C60.7246 3.21875 61.457 5.00586 61.457 7.31445C61.457 8.58008 61.1289 9.86914 60.4727 11.1816C59.8164 12.4941 58.6914 14.0234 57.0977 15.7695L51.2793 21.9043H62.2832V26ZM82.6387 15.418C82.6387 18.957 81.9062 21.6641 80.4414 23.5391C78.9766 25.4141 76.832 26.3516 74.0078 26.3516C71.2188 26.3516 69.0859 25.4316 67.6094 23.5918C66.1328 21.752 65.377 19.1152 65.3418 15.6816V10.9707C65.3418 7.39648 66.0801 4.68359 67.5566 2.83203C69.0449 0.980469 71.1836 0.0546875 73.9727 0.0546875C76.7617 0.0546875 78.8945 0.974609 80.3711 2.81445C81.8477 4.64258 82.6035 7.27344 82.6387 10.707V15.418ZM77.5586 10.25C77.5586 8.12891 77.2656 6.58789 76.6797 5.62695C76.1055 4.6543 75.2031 4.16797 73.9727 4.16797C72.7773 4.16797 71.8926 4.63086 71.3184 5.55664C70.7559 6.4707 70.457 7.90625 70.4219 9.86328V16.0859C70.4219 18.1719 70.7031 19.7246 71.2656 20.7441C71.8398 21.752 72.7539 22.2559 74.0078 22.2559C75.25 22.2559 76.1465 21.7695 76.6973 20.7969C77.248 19.8242 77.5352 18.3359 77.5586 16.332V10.25Z" fill="#EB5757"/>
<path d="M7.28711 37.293C7.18164 38.1953 6.84766 38.8926 6.28516 39.3848C5.72656 39.873 4.98242 40.1172 4.05273 40.1172C3.04492 40.1172 2.23633 39.7559 1.62695 39.0332C1.02148 38.3105 0.71875 37.3438 0.71875 36.1328V35.3125C0.71875 34.5195 0.859375 33.8223 1.14062 33.2207C1.42578 32.6191 1.82812 32.1582 2.34766 31.8379C2.86719 31.5137 3.46875 31.3516 4.15234 31.3516C5.05859 31.3516 5.78516 31.6055 6.33203 32.1133C6.87891 32.6172 7.19727 33.3164 7.28711 34.2109H6.15625C6.05859 33.5312 5.8457 33.0391 5.51758 32.7344C5.19336 32.4297 4.73828 32.2773 4.15234 32.2773C3.43359 32.2773 2.86914 32.543 2.45898 33.0742C2.05273 33.6055 1.84961 34.3613 1.84961 35.3418V36.168C1.84961 37.0938 2.04297 37.8301 2.42969 38.377C2.81641 38.9238 3.35742 39.1973 4.05273 39.1973C4.67773 39.1973 5.15625 39.0566 5.48828 38.7754C5.82422 38.4902 6.04688 37.9961 6.15625 37.293H7.28711ZM11.3418 36.1973C10.377 35.9199 9.67383 35.5801 9.23242 35.1777C8.79492 34.7715 8.57617 34.2715 8.57617 33.6777C8.57617 33.0059 8.84375 32.4512 9.37891 32.0137C9.91797 31.5723 10.6172 31.3516 11.4766 31.3516C12.0625 31.3516 12.584 31.4648 13.041 31.6914C13.502 31.918 13.8574 32.2305 14.1074 32.6289C14.3613 33.0273 14.4883 33.4629 14.4883 33.9355H13.3574C13.3574 33.4199 13.1934 33.0156 12.8652 32.7227C12.5371 32.4258 12.0742 32.2773 11.4766 32.2773C10.9219 32.2773 10.4883 32.4004 10.1758 32.6465C9.86719 32.8887 9.71289 33.2266 9.71289 33.6602C9.71289 34.0078 9.85938 34.3027 10.1523 34.5449C10.4492 34.7832 10.9512 35.002 11.6582 35.2012C12.3691 35.4004 12.9238 35.6211 13.3223 35.8633C13.7246 36.1016 14.0215 36.3809 14.2129 36.7012C14.4082 37.0215 14.5059 37.3984 14.5059 37.832C14.5059 38.5234 14.2363 39.0781 13.6973 39.4961C13.1582 39.9102 12.4375 40.1172 11.5352 40.1172C10.9492 40.1172 10.4023 40.0059 9.89453 39.7832C9.38672 39.5566 8.99414 39.248 8.7168 38.8574C8.44336 38.4668 8.30664 38.0234 8.30664 37.5273H9.4375C9.4375 38.043 9.62695 38.4512 10.0059 38.752C10.3887 39.0488 10.8984 39.1973 11.5352 39.1973C12.1289 39.1973 12.584 39.0762 12.9004 38.834C13.2168 38.5918 13.375 38.2617 13.375 37.8438C13.375 37.4258 13.2285 37.1035 12.9355 36.877C12.6426 36.6465 12.1113 36.4199 11.3418 36.1973ZM18.4668 36.1973C17.502 35.9199 16.7988 35.5801 16.3574 35.1777C15.9199 34.7715 15.7012 34.2715 15.7012 33.6777C15.7012 33.0059 15.9688 32.4512 16.5039 32.0137C17.043 31.5723 17.7422 31.3516 18.6016 31.3516C19.1875 31.3516 19.709 31.4648 20.166 31.6914C20.627 31.918 20.9824 32.2305 21.2324 32.6289C21.4863 33.0273 21.6133 33.4629 21.6133 33.9355H20.4824C20.4824 33.4199 20.3184 33.0156 19.9902 32.7227C19.6621 32.4258 19.1992 32.2773 18.6016 32.2773C18.0469 32.2773 17.6133 32.4004 17.3008 32.6465C16.9922 32.8887 16.8379 33.2266 16.8379 33.6602C16.8379 34.0078 16.9844 34.3027 17.2773 34.5449C17.5742 34.7832 18.0762 35.002 18.7832 35.2012C19.4941 35.4004 20.0488 35.6211 20.4473 35.8633C20.8496 36.1016 21.1465 36.3809 21.3379 36.7012C21.5332 37.0215 21.6309 37.3984 21.6309 37.832C21.6309 38.5234 21.3613 39.0781 20.8223 39.4961C20.2832 39.9102 19.5625 40.1172 18.6602 40.1172C18.0742 40.1172 17.5273 40.0059 17.0195 39.7832C16.5117 39.5566 16.1191 39.248 15.8418 38.8574C15.5684 38.4668 15.4316 38.0234 15.4316 37.5273H16.5625C16.5625 38.043 16.752 38.4512 17.1309 38.752C17.5137 39.0488 18.0234 39.1973 18.6602 39.1973C19.2539 39.1973 19.709 39.0762 20.0254 38.834C20.3418 38.5918 20.5 38.2617 20.5 37.8438C20.5 37.4258 20.3535 37.1035 20.0605 36.877C19.7676 36.6465 19.2363 36.4199 18.4668 36.1973ZM30.7656 37.7734H27.1914L26.3887 40H25.2285L28.4863 31.4688H29.4707L32.7344 40H31.5801L30.7656 37.7734ZM27.5312 36.8477H30.4316L28.9785 32.8574L27.5312 36.8477ZM34.7383 33.6602L34.7734 34.457C35.2578 33.8477 35.8906 33.543 36.6719 33.543C38.0117 33.543 38.6875 34.2988 38.6992 35.8105V40H37.6152V35.8047C37.6113 35.3477 37.5059 35.0098 37.2988 34.791C37.0957 34.5723 36.7773 34.4629 36.3438 34.4629C35.9922 34.4629 35.6836 34.5566 35.418 34.7441C35.1523 34.9316 34.9453 35.1777 34.7969 35.4824V40H33.7129V33.6602H34.7383ZM41.5117 40H40.4277V33.6602H41.5117V40ZM40.3398 31.9785C40.3398 31.8027 40.3926 31.6543 40.498 31.5332C40.6074 31.4121 40.7676 31.3516 40.9785 31.3516C41.1895 31.3516 41.3496 31.4121 41.459 31.5332C41.5684 31.6543 41.623 31.8027 41.623 31.9785C41.623 32.1543 41.5684 32.3008 41.459 32.418C41.3496 32.5352 41.1895 32.5938 40.9785 32.5938C40.7676 32.5938 40.6074 32.5352 40.498 32.418C40.3926 32.3008 40.3398 32.1543 40.3398 31.9785ZM44.2715 33.6602L44.3008 34.3633C44.7656 33.8164 45.3926 33.543 46.1816 33.543C47.0684 33.543 47.6719 33.8828 47.9922 34.5625C48.2031 34.2578 48.4766 34.0117 48.8125 33.8242C49.1523 33.6367 49.5527 33.543 50.0137 33.543C51.4043 33.543 52.1113 34.2793 52.1348 35.752V40H51.0508V35.8164C51.0508 35.3633 50.9473 35.0254 50.7402 34.8027C50.5332 34.5762 50.1855 34.4629 49.6973 34.4629C49.2949 34.4629 48.9609 34.584 48.6953 34.8262C48.4297 35.0645 48.2754 35.3867 48.2324 35.793V40H47.1426V35.8457C47.1426 34.9238 46.6914 34.4629 45.7891 34.4629C45.0781 34.4629 44.5918 34.7656 44.3301 35.3711V40H43.2461V33.6602H44.2715ZM57.6895 40C57.627 39.875 57.5762 39.6523 57.5371 39.332C57.0332 39.8555 56.4316 40.1172 55.7324 40.1172C55.1074 40.1172 54.5938 39.9414 54.1914 39.5898C53.793 39.2344 53.5938 38.7852 53.5938 38.2422C53.5938 37.582 53.8438 37.0703 54.3438 36.707C54.8477 36.3398 55.5547 36.1562 56.4648 36.1562H57.5195V35.6582C57.5195 35.2793 57.4062 34.9785 57.1797 34.7559C56.9531 34.5293 56.6191 34.416 56.1777 34.416C55.791 34.416 55.4668 34.5137 55.2051 34.709C54.9434 34.9043 54.8125 35.1406 54.8125 35.418H53.7227C53.7227 35.1016 53.834 34.7969 54.0566 34.5039C54.2832 34.207 54.5879 33.9727 54.9707 33.8008C55.3574 33.6289 55.7812 33.543 56.2422 33.543C56.9727 33.543 57.5449 33.7266 57.959 34.0938C58.373 34.457 58.5879 34.959 58.6035 35.5996V38.5176C58.6035 39.0996 58.6777 39.5625 58.8262 39.9062V40H57.6895ZM55.8906 39.1738C56.2305 39.1738 56.5527 39.0859 56.8574 38.9102C57.1621 38.7344 57.3828 38.5059 57.5195 38.2246V36.9238H56.6699C55.3418 36.9238 54.6777 37.3125 54.6777 38.0898C54.6777 38.4297 54.791 38.6953 55.0176 38.8867C55.2441 39.0781 55.5352 39.1738 55.8906 39.1738ZM61.7734 32.125V33.6602H62.957V34.498H61.7734V38.4297C61.7734 38.6836 61.8262 38.875 61.9316 39.0039C62.0371 39.1289 62.2168 39.1914 62.4707 39.1914C62.5957 39.1914 62.7676 39.168 62.9863 39.1211V40C62.7012 40.0781 62.4238 40.1172 62.1543 40.1172C61.6699 40.1172 61.3047 39.9707 61.0586 39.6777C60.8125 39.3848 60.6895 38.9688 60.6895 38.4297V34.498H59.5352V33.6602H60.6895V32.125H61.7734ZM65.4062 40H64.3223V33.6602H65.4062V40ZM64.2344 31.9785C64.2344 31.8027 64.2871 31.6543 64.3926 31.5332C64.502 31.4121 64.6621 31.3516 64.873 31.3516C65.084 31.3516 65.2441 31.4121 65.3535 31.5332C65.4629 31.6543 65.5176 31.8027 65.5176 31.9785C65.5176 32.1543 65.4629 32.3008 65.3535 32.418C65.2441 32.5352 65.084 32.5938 64.873 32.5938C64.6621 32.5938 64.502 32.5352 64.3926 32.418C64.2871 32.3008 64.2344 32.1543 64.2344 31.9785ZM66.8594 36.7715C66.8594 36.1504 66.9805 35.5918 67.2227 35.0957C67.4688 34.5996 67.8086 34.2168 68.2422 33.9473C68.6797 33.6777 69.1777 33.543 69.7363 33.543C70.5996 33.543 71.2969 33.8418 71.8281 34.4395C72.3633 35.0371 72.6309 35.832 72.6309 36.8242V36.9004C72.6309 37.5176 72.5117 38.0723 72.2734 38.5645C72.0391 39.0527 71.7012 39.4336 71.2598 39.707C70.8223 39.9805 70.3184 40.1172 69.748 40.1172C68.8887 40.1172 68.1914 39.8184 67.6562 39.2207C67.125 38.623 66.8594 37.832 66.8594 36.8477V36.7715ZM67.9492 36.9004C67.9492 37.6035 68.1113 38.168 68.4355 38.5938C68.7637 39.0195 69.2012 39.2324 69.748 39.2324C70.2988 39.2324 70.7363 39.0176 71.0605 38.5879C71.3848 38.1543 71.5469 37.5488 71.5469 36.7715C71.5469 36.0762 71.3809 35.5137 71.0488 35.084C70.7207 34.6504 70.2832 34.4336 69.7363 34.4336C69.2012 34.4336 68.7695 34.6465 68.4414 35.0723C68.1133 35.498 67.9492 36.1074 67.9492 36.9004ZM75.0156 33.6602L75.0508 34.457C75.5352 33.8477 76.168 33.543 76.9492 33.543C78.2891 33.543 78.9648 34.2988 78.9766 35.8105V40H77.8926V35.8047C77.8887 35.3477 77.7832 35.0098 77.5762 34.791C77.373 34.5723 77.0547 34.4629 76.6211 34.4629C76.2695 34.4629 75.9609 34.5566 75.6953 34.7441C75.4297 34.9316 75.2227 35.1777 75.0742 35.4824V40H73.9902V33.6602H75.0156ZM84.3027 38.3184C84.3027 38.0254 84.1914 37.7988 83.9688 37.6387C83.75 37.4746 83.3652 37.334 82.8145 37.2168C82.2676 37.0996 81.832 36.959 81.5078 36.7949C81.1875 36.6309 80.9492 36.4355 80.793 36.209C80.6406 35.9824 80.5645 35.7129 80.5645 35.4004C80.5645 34.8809 80.7832 34.4414 81.2207 34.082C81.6621 33.7227 82.2246 33.543 82.9082 33.543C83.627 33.543 84.209 33.7285 84.6543 34.0996C85.1035 34.4707 85.3281 34.9453 85.3281 35.5234H84.2383C84.2383 35.2266 84.1113 34.9707 83.8574 34.7559C83.6074 34.541 83.291 34.4336 82.9082 34.4336C82.5137 34.4336 82.2051 34.5195 81.9824 34.6914C81.7598 34.8633 81.6484 35.0879 81.6484 35.3652C81.6484 35.627 81.752 35.8242 81.959 35.957C82.166 36.0898 82.5391 36.2168 83.0781 36.3379C83.6211 36.459 84.0605 36.6035 84.3965 36.7715C84.7324 36.9395 84.9805 37.1426 85.1406 37.3809C85.3047 37.6152 85.3867 37.9023 85.3867 38.2422C85.3867 38.8086 85.1602 39.2637 84.707 39.6074C84.2539 39.9473 83.666 40.1172 82.9434 40.1172C82.4355 40.1172 81.9863 40.0273 81.5957 39.8477C81.2051 39.668 80.8984 39.418 80.6758 39.0977C80.457 38.7734 80.3477 38.4238 80.3477 38.0488H81.4316C81.4512 38.4121 81.5957 38.7012 81.8652 38.916C82.1387 39.127 82.498 39.2324 82.9434 39.2324C83.3535 39.2324 83.6816 39.1504 83.9277 38.9863C84.1777 38.8184 84.3027 38.5957 84.3027 38.3184Z" fill="black"/>
</svg>
